<svg baseProfile="full" height="200" version="1.1" width="200" xmlns="http://www.w3.org/2000/svg" xmlns:ev="http://www.w3.org/2001/xml-events" xmlns:xlink="http://www.w3.org/1999/xlink"><defs /><g id="lines" stroke="black"><line x1="50.0" x2="50.0" y1="168.18005547049813" y2="20.0" /><line x1="50.0" x2="83.33333333333334" y1="20.0" y2="20.0" /><line x1="33.333333333333336" x2="33.333333333333336" y1="180.0" y2="168.18005547049813" /><line x1="33.333333333333336" x2="50.0" y1="168.18005547049813" y2="168.18005547049813" /><line x1="66.66666666666667" x2="66.66666666666667" y1="180.0" y2="168.18005547049813" /><line x1="66.66666666666667" x2="50.0" y1="168.18005547049813" y2="168.18005547049813" /><line x1="116.66666666666667" x2="116.66666666666667" y1="157.97141722528386" y2="20.0" /><line x1="116.66666666666667" x2="83.33333333333334" y1="20.0" y2="20.0" /><line x1="100.0" x2="100.0" y1="180.0" y2="157.97141722528386" /><line x1="100.0" x2="116.66666666666667" y1="157.97141722528386" y2="157.97141722528386" /><line x1="133.33333333333334" x2="133.33333333333334" y1="180.0" y2="157.97141722528386" /><line x1="133.33333333333334" x2="116.66666666666667" y1="157.97141722528386" y2="157.97141722528386" /></g><g font-size="14" text-anchor="start"><text x="121.66666666666667" y="152.97141722528386">5</text></g><g font-size="14" text-anchor="end"><text x="45.0" y="163.18005547049813">4</text></g><g font-size="14" text-anchor="middle"><text x="83.33333333333334" y="15.0">6</text><text x="33.333333333333336" y="200.0">0</text><text x="66.66666666666667" y="200.0">1</text><text x="100.0" y="200.0">2</text><text x="133.33333333333334" y="200.0">3</text></g><circle cx="83.33333333333334" cy="20.0" fill="black" r="3" /><circle cx="50.0" cy="168.18005547049813" fill="black" r="3" /><circle cx="33.333333333333336" cy="180.0" fill="black" r="3" /><circle cx="66.66666666666667" cy="180.0" fill="black" r="3" /><circle cx="116.66666666666667" cy="157.97141722528386" fill="black" r="3" /><circle cx="100.0" cy="180.0" fill="black" r="3" /><circle cx="133.33333333333334" cy="180.0" fill="black" r="3" /><g alignment-baseline="middle" font-size="14" font-style="italic" text-anchor="start" /><g alignment-baseline="middle" font-size="14" font-style="italic" text-anchor="end"><text x="45.0" y="123.28670364699875">0</text><text x="45.0" y="73.89335182349937">1</text></g><rect fill="red" height="6" width="6" x="47.0" y="115.78670364699875" /><rect fill="red" height="6" width="6" x="47.0" y="66.39335182349937" /></svg>