<?xml version="1.0" encoding="UTF-8" standalone="no"?>
<svg
   xmlns:dc="http://purl.org/dc/elements/1.1/"
   xmlns:cc="http://creativecommons.org/ns#"
   xmlns:rdf="http://www.w3.org/1999/02/22-rdf-syntax-ns#"
   xmlns:svg="http://www.w3.org/2000/svg"
   xmlns="http://www.w3.org/2000/svg"
   viewBox="0 0 1518.6667 1188"
   height="1188"
   width="1518.6667"
   xml:space="preserve"
   id="svg2"
   version="1.1"><metadata
     id="metadata8"><rdf:RDF><cc:Work
         rdf:about=""><dc:format>image/svg+xml</dc:format><dc:type
           rdf:resource="http://purl.org/dc/dcmitype/StillImage" /></cc:Work></rdf:RDF></metadata><defs
     id="defs6" /><g
     transform="matrix(1.3333333,0,0,-1.3333333,0,1188)"
     id="g10"><g
       transform="scale(0.1)"
       id="g12"><path
         id="path14"
         style="fill:#040606;fill-opacity:1;fill-rule:nonzero;stroke:none"
         d="M 11390,0 H 0 V 8910 H 11390 V 0" /><path
         id="path16"
         style="fill:#ffffff;fill-opacity:1;fill-rule:nonzero;stroke:none"
         d="M 514.164,938.102 V 1976.2 H 260 v 430.75 h 254.164 v 633.2 H 1125.8 v -633.2 H 1759 V 1976.2 H 1125.8 V 938.102 c 0,-236.911 99.09,-366.129 323.05,-366.129 142.17,0 258.47,47.379 310.15,77.539 V 201.531 C 1672.85,158.461 1509.18,98.1523 1272.27,98.1523 738.125,98.1523 514.164,451.352 514.164,938.102" /><path
         id="path18"
         style="fill:#ffffff;fill-opacity:1;fill-rule:nonzero;stroke:none"
         d="m 3232.13,1498.08 c 568.61,-168 805.52,-344.61 805.52,-749.502 0,-417.836 -323.05,-650.4257 -814.12,-650.4257 -335.96,0 -547.06,90.4497 -689.18,236.9067 l -8.6,-168 H 2095 v 779.66 h 473.82 c 94.74,-236.906 284.28,-391.977 568.56,-391.977 159.38,0 288.59,64.61 288.59,198.137 0,133.543 -124.91,189.519 -215.35,215.383 l -336,90.438 c -353.22,94.77 -792.57,211.07 -792.57,758.13 0,426.42 305.84,654.73 758.14,654.73 223.96,0 460.87,-64.61 637.5,-223.98 l 8.61,159.37 h 430.74 v -753.82 h -473.82 c -73.23,245.54 -258.46,366.14 -460.91,366.14 -159.37,0 -288.58,-68.91 -288.58,-211.07 0,-120.61 77.53,-172.28 232.6,-219.68 l 305.8,-90.44" /><path
         id="path20"
         style="fill:#ffffff;fill-opacity:1;fill-rule:nonzero;stroke:none"
         d="M 5282.48,167.059 V 597.813 H 5528 V 2966.91 h -245.52 v 430.75 h 857.2 V 1571.29 h 512.59 l 219.69,404.91 h -323.09 v 430.75 H 7767.89 V 1976.2 h -331.66 l -361.82,-611.66 538.41,-766.727 h 353.21 V 167.059 H 6716.89 v 430.754 h 219.66 L 6574.73,1183.63 H 6139.68 V 597.813 h 245.51 V 167.059 H 5282.48" /><path
         id="path22"
         style="fill:#ffffff;fill-opacity:1;fill-rule:nonzero;stroke:none"
         d="m 8345.1,3113.38 c 0,198.14 137.82,348.89 366.12,348.89 228.31,0 366.13,-150.75 366.13,-348.89 0,-198.14 -137.82,-348.91 -366.13,-348.91 -228.3,0 -366.12,150.77 -366.12,348.91 z M 8211.54,167.059 v 430.754 h 245.52 V 1976.2 h -245.52 v 430.75 h 857.2 V 597.813 h 245.52 V 167.059 H 8211.54" /><path
         id="path24"
         style="fill:#ffffff;fill-opacity:1;fill-rule:nonzero;stroke:none"
         d="M 9775.17,938.102 V 1976.2 H 9521 v 430.75 h 254.17 v 633.2 h 611.63 v -633.2 H 11020 V 1976.2 h -633.2 V 938.102 c 0,-236.911 99.1,-366.129 323.1,-366.129 142.1,0 258.4,47.379 310.1,77.539 V 201.531 c -86.1,-43.07 -249.8,-103.3787 -486.7,-103.3787 -534.17,0 -758.13,353.1997 -758.13,839.9497" /><path
         id="path26"
         style="fill:#5dc694;fill-opacity:1;fill-rule:nonzero;stroke:none"
         d="M 1125.58,3470.89 H 513.898 v 611.68 h 611.682 v -611.68" /><path
         id="path28"
         style="fill:#5dc694;fill-opacity:1;fill-rule:nonzero;stroke:none"
         d="m 10385.5,3470.89 h -611.66 v 611.68 h 611.66 v -611.68" /><path
         id="path30"
         style="fill:#5dc694;fill-opacity:1;fill-rule:nonzero;stroke:none"
         d="M 6139.68,3828.41 H 5528 v 611.68 h 611.68 v -611.68" /><path
         id="path32"
         style="fill:#5dc694;fill-opacity:1;fill-rule:nonzero;stroke:none"
         d="m 8262.6,5663.45 h -611.68 v 611.68 h 611.68 v -611.68" /><path
         id="path34"
         style="fill:#5dc694;fill-opacity:1;fill-rule:nonzero;stroke:none"
         d="m 8262.6,6275.13 h -611.68 v 611.68 h 611.68 v -611.68" /><path
         id="path36"
         style="fill:#5dc694;fill-opacity:1;fill-rule:nonzero;stroke:none"
         d="M 5254.38,7498.49 H 4642.7 v 611.68 h 611.68 v -611.68" /><path
         id="path38"
         style="fill:#5dc694;fill-opacity:1;fill-rule:nonzero;stroke:none"
         d="M 1125.58,3470.89 H 513.898 v 4027.6 h 611.682 v -4027.6" /><path
         id="path40"
         style="fill:#5dc694;fill-opacity:1;fill-rule:nonzero;stroke:none"
         d="M 5254.38,8110.17 H 4642.7 v 611.68 h 611.68 v -611.68" /><path
         id="path42"
         style="fill:#5dc694;fill-opacity:1;fill-rule:nonzero;stroke:none"
         d="M 8262.6,6886.81 H 513.898 v 611.68 H 8262.6 v -611.68" /><path
         id="path44"
         style="fill:#5dc694;fill-opacity:1;fill-rule:nonzero;stroke:none"
         d="M 6139.68,4440.09 H 5528 v 611.68 h 611.68 v -611.68" /><path
         id="path46"
         style="fill:#5dc694;fill-opacity:1;fill-rule:nonzero;stroke:none"
         d="m 10385.5,3470.89 h -611.66 v 1580.88 h 611.66 V 3470.89" /><path
         id="path48"
         style="fill:#5dc694;fill-opacity:1;fill-rule:nonzero;stroke:none"
         d="M 10385.5,5051.77 H 5528 v 611.68 h 4857.5 v -611.68" /></g></g></svg>