<?xml version="1.0" encoding="UTF-8" standalone="no"?>
<svg
   xmlns:dc="http://purl.org/dc/elements/1.1/"
   xmlns:cc="http://creativecommons.org/ns#"
   xmlns:rdf="http://www.w3.org/1999/02/22-rdf-syntax-ns#"
   xmlns:svg="http://www.w3.org/2000/svg"
   xmlns="http://www.w3.org/2000/svg"
   xmlns:sodipodi="http://sodipodi.sourceforge.net/DTD/sodipodi-0.dtd"
   xmlns:inkscape="http://www.inkscape.org/namespaces/inkscape"
   viewBox="0 0 1434.6667 1149.8267"
   height="1149.8267"
   width="1434.6667"
   xml:space="preserve"
   id="svg2"
   version="1.1"
   sodipodi:docname="Tskit_rust_logo.eps.svg"
   inkscape:version="0.92.5 (2060ec1f9f, 2020-04-08)"><sodipodi:namedview
     pagecolor="#ffffff"
     bordercolor="#666666"
     borderopacity="1"
     objecttolerance="10"
     gridtolerance="10"
     guidetolerance="10"
     inkscape:pageopacity="0"
     inkscape:pageshadow="2"
     inkscape:window-width="1096"
     inkscape:window-height="724"
     id="namedview24"
     showgrid="false"
     inkscape:zoom="0.38754645"
     inkscape:cx="823.65673"
     inkscape:cy="574.91333"
     inkscape:window-x="748"
     inkscape:window-y="169"
     inkscape:window-maximized="0"
     inkscape:current-layer="g10" /><metadata
     id="metadata8"><rdf:RDF><cc:Work
         rdf:about=""><dc:format>image/svg+xml</dc:format><dc:type
           rdf:resource="http://purl.org/dc/dcmitype/StillImage" /><dc:title></dc:title></cc:Work></rdf:RDF></metadata><defs
     id="defs6" /><g
     transform="matrix(1.3333333,0,0,-1.3333333,0,1149.8267)"
     id="g10"><g
       transform="scale(0.1)"
       id="g12"><path
         id="path16"
         style="fill:#204e66;fill-opacity:1;fill-rule:nonzero;stroke:none"
         d="m 2972.13,1399.92 c 568.61,-168 805.52,-344.6 805.52,-749.49 C 3777.65,232.59 3454.6,0 2963.53,0 2627.57,0 2416.47,90.4414 2274.35,236.91 l -8.6,-167.9998 H 1835 V 848.57 h 473.82 c 94.74,-236.91 284.28,-391.98 568.56,-391.98 159.38,0 288.59,64.601 288.59,198.14 0,133.532 -124.91,189.512 -215.35,215.372 l -336,90.449 c -353.22,94.769 -792.57,211.069 -792.57,758.119 0,426.43 305.84,654.73 758.14,654.73 223.96,0 460.87,-64.61 637.5,-223.98 l 8.61,159.37 h 430.74 v -753.82 h -473.82 c -73.23,245.54 -258.46,366.15 -460.91,366.15 -159.37,0 -288.58,-68.91 -288.58,-211.08 0,-120.6 77.53,-172.28 232.6,-219.67 l 305.8,-90.45" /><path
         id="path18"
         style="fill:#204e66;fill-opacity:1;fill-rule:nonzero;stroke:none"
         d="M 5022.48,68.9102 V 499.66 H 5268 v 2369.1 h -245.52 v 430.75 h 857.2 V 1473.14 h 512.59 l 219.69,404.91 h -323.09 v 430.74 h 1219.02 v -430.74 h -331.66 l -361.82,-611.66 538.41,-766.73 h 353.21 V 68.9102 H 6456.89 V 499.66 h 219.66 l -361.82,585.82 H 5879.68 V 499.66 h 245.51 V 68.9102 H 5022.48" /><path
         id="path20"
         style="fill:#204e66;fill-opacity:1;fill-rule:nonzero;stroke:none"
         d="m 8085.1,3015.22 c 0,198.14 137.82,348.89 366.12,348.89 228.31,0 366.13,-150.75 366.13,-348.89 0,-198.14 -137.82,-348.91 -366.13,-348.91 -228.3,0 -366.12,150.77 -366.12,348.91 z M 7951.54,68.9102 V 499.66 h 245.52 v 1378.39 h -245.52 v 430.74 h 857.2 V 499.66 h 245.52 V 68.9102 H 7951.54" /><path
         id="path22"
         style="fill:#204e66;fill-opacity:1;fill-rule:nonzero;stroke:none"
         d="M 9515.17,839.941 V 1878.05 H 9261 v 430.74 h 254.17 v 633.2 h 611.63 v -633.2 h 633.2 v -430.74 h -633.2 V 839.941 c 0,-236.91 99.1,-366.121 323.1,-366.121 142.1,0 258.4,47.371 310.1,77.532 V 103.371 C 10673.9,60.3008 10510.2,0 10273.3,0 9739.13,0 9515.17,353.191 9515.17,839.941" /><path
         id="path24"
         style="fill:#5dc694;fill-opacity:1;fill-rule:nonzero;stroke:none"
         d="m 865.578,3372.74 h -611.68 v 611.68 h 611.68 v -611.68" /><path
         id="path26"
         style="fill:#5dc694;fill-opacity:1;fill-rule:nonzero;stroke:none"
         d="m 10125.5,3372.74 h -611.66 v 611.68 h 611.66 v -611.68" /><path
         id="path28"
         style="fill:#5dc694;fill-opacity:1;fill-rule:nonzero;stroke:none"
         d="M 5879.68,3730.25 H 5268 v 611.68 h 611.68 v -611.68" /><path
         id="path30"
         style="fill:#5dc694;fill-opacity:1;fill-rule:nonzero;stroke:none"
         d="m 8002.6,5565.29 h -611.68 v 611.68 h 611.68 v -611.68" /><path
         id="path32"
         style="fill:#5dc694;fill-opacity:1;fill-rule:nonzero;stroke:none"
         d="m 8002.6,6176.97 h -611.68 v 611.68 h 611.68 v -611.68" /><path
         id="path34"
         style="fill:#5dc694;fill-opacity:1;fill-rule:nonzero;stroke:none"
         d="M 4994.38,7400.33 H 4382.7 v 611.68 h 611.68 v -611.68" /><path
         id="path36"
         style="fill:#5dc694;fill-opacity:1;fill-rule:nonzero;stroke:none"
         d="m 865.578,3372.74 h -611.68 v 4027.59 h 611.68 V 3372.74" /><path
         id="path38"
         style="fill:#5dc694;fill-opacity:1;fill-rule:nonzero;stroke:none"
         d="M 4994.38,8012.01 H 4382.7 v 611.68 h 611.68 v -611.68" /><path
         id="path40"
         style="fill:#5dc694;fill-opacity:1;fill-rule:nonzero;stroke:none"
         d="M 8002.6,6788.65 H 253.898 v 611.68 H 8002.6 v -611.68" /><path
         id="path42"
         style="fill:#5dc694;fill-opacity:1;fill-rule:nonzero;stroke:none"
         d="M 5879.68,4341.93 H 5268 v 611.68 h 611.68 v -611.68" /><path
         id="path44"
         style="fill:#5dc694;fill-opacity:1;fill-rule:nonzero;stroke:none"
         d="m 10125.5,3372.74 h -611.66 v 1580.87 h 611.66 V 3372.74" /><path
         id="path46"
         style="fill:#5dc694;fill-opacity:1;fill-rule:nonzero;stroke:none"
         d="M 10125.5,4953.61 H 5268 v 611.68 h 4857.5 v -611.68" /></g><path
       transform="scale(0.1)"
       id="path14"
       style="fill:#204e66;fill-opacity:1;fill-rule:nonzero;stroke:none"
       d="M 254.164,839.941 V 1878.05 H 0 v 430.74 h 254.164 v 633.2 h 611.637 v -633.2 H 1499 V 1878.05 H 865.801 V 839.941 c 0,-236.91 99.094,-366.121 323.049,-366.121 142.17,0 258.47,47.371 310.15,77.532 V 103.371 C 1412.85,60.3008 1249.18,0 1012.27,0 478.121,0 254.164,353.191 254.164,839.941" /><path
       inkscape:connector-curvature="0"
       class="cls-2"
       d="m 938.37498,822.73269 c -57.56728,0 -104.34757,-47.00043 -104.34757,-104.78786 0,-19.48261 5.28341,-37.86452 14.5294,-53.38457 0.44029,-0.66043 0.66043,-1.32085 1.10072,-1.87121 18.49197,-29.71924 51.29321,-49.53208 88.71745,-49.53208 57.56728,0 104.34752,47.00044 104.34752,104.78786 0,57.78743 -46.78024,104.78786 -104.34752,104.78786 z m 0,-190.53338 c -26.0869,0 -49.422,11.77762 -65.1622,30.37967 -6.82442,8.14527 -12.21791,17.50133 -15.7402,27.73796 -2.86185,8.69563 -4.51291,17.94162 -4.51291,27.51782 0,9.5762 1.76113,19.70276 5.06327,28.72861 3.30214,9.68627 8.47549,18.3819 14.85963,26.19696 15.74019,18.82219 39.18537,30.81996 65.49241,30.81996 47.00044,0 85.30522,-38.41488 85.30522,-85.74553 0,-3.41221 -0.2201,-6.82442 -0.5503,-10.12656 -1.9813,-17.06104 -9.0259,-32.58109 -19.4827,-45.01915 -15.74014,-18.60205 -39.07525,-30.48974 -65.16215,-30.48974 z"
       id="path6"
       style="fill:#204e66;fill-opacity:1;stroke:#204e66;stroke-width:11.00712872;stroke-opacity:1" /><path
       inkscape:connector-curvature="0"
       class="cls-1"
       d="m 1013.8839,709.35928 -1.6511,-10.23664 c -4.623,-13.53876 -18.49196,-4.07263 -18.49196,-4.07263 -6.38414,23.88547 -15.18985,25.53653 -15.96034,25.53653 18.93226,8.80571 18.93226,27.07754 18.93226,27.07754 0,11.8877 -8.25535,19.04233 -16.40062,23.11497 -7.37478,3.74242 -15.74019,5.39349 -23.99554,5.28342 l -83.65417,-0.55036 c -6.49421,-7.92512 -11.66756,-16.73083 -15.07977,-26.63724 h 17.72148 l -0.33022,-57.34715 h -17.83155 c 3.52228,-10.45676 8.91578,-19.92289 15.85026,-28.28831 h 65.38235 l -0.33022,27.18761 -23.00489,-0.33022 v 17.28119 h 18.93226 c 20.47326,0 20.47326,-17.6114 20.47326,-17.6114 1.76113,-26.0869 15.85026,-26.63726 15.85026,-26.63726 h 34.34225 c 10.5668,12.76827 17.7215,28.50847 19.7027,45.89973 h -10.5668 z m -68.79457,20.69339 h -29.93939 v 18.60206 h 28.39839 c 0,0 13.09848,2.09135 13.09848,-8.03521 0,-10.12656 -11.44741,-10.56685 -11.44741,-10.56685 z"
       id="path8"
       style="fill:#204e66;fill-opacity:1;stroke-width:11.00712872" /><path
       inkscape:connector-curvature="0"
       class="cls-1"
       d="m 957.52738,822.07227 h -35.77317 l 8.91578,15.52005 6.05392,10.45677 c 1.32085,2.20143 4.51292,2.20143 5.83378,0 l 6.05392,-10.45677 z"
       id="path10"
       style="fill:#204e66;fill-opacity:1;stroke-width:11.00712872" /><path
       inkscape:connector-curvature="0"
       class="cls-1"
       d="m 956.09646,613.0469 h -35.77317 l 8.91577,-15.52005 6.05392,-10.45677 c 1.32086,-2.20143 4.51293,-2.20143 5.83378,0 l 6.05392,10.45677 z"
       id="path12"
       style="fill:#204e66;fill-opacity:1;stroke-width:11.00712872" /><path
       inkscape:connector-curvature="0"
       class="cls-1"
       d="m 1040.9614,699.56293 v 35.77317 l 15.52,-8.91577 10.4569,-6.05393 c 2.2013,-1.32085 2.2013,-4.51292 0,-5.83378 l -10.4569,-6.05392 z"
       id="path14-1"
       style="fill:#204e66;fill-opacity:1;stroke-width:11.00712872" /><path
       inkscape:connector-curvature="0"
       class="cls-1"
       d="m 835.01804,698.79243 v 35.77317 l -15.52005,-8.91577 -10.45677,-6.05392 c -2.20143,-1.32086 -2.20143,-4.51293 0,-5.83379 l 10.45677,-6.05392 z"
       id="path16-0"
       style="fill:#204e66;fill-opacity:1;stroke-width:11.00712872" /><path
       inkscape:connector-curvature="0"
       class="cls-1"
       d="m 851.63881,777.4934 12.21791,12.98841 12.21792,12.98841 -17.39127,4.18271 -11.77762,2.75178 c -2.53165,0.55036 -4.73307,-1.76114 -3.96257,-4.1827 l 3.41221,-11.55749 5.06327,-17.06105 z"
       id="path18-3"
       style="fill:#204e66;fill-opacity:1;stroke-width:11.00712872" /><path
       inkscape:connector-curvature="0"
       class="cls-1"
       d="m 1024.891,775.29197 -12.2179,12.98841 -12.2179,12.98842 17.3912,4.18271 11.7777,2.75178 c 2.5316,0.55035 4.733,-1.76114 3.9625,-4.18271 l -3.4122,-11.55749 -5.0633,-17.06105 z"
       id="path20-4"
       style="fill:#204e66;fill-opacity:1;stroke-width:11.00712872" /><path
       inkscape:connector-curvature="0"
       class="cls-1"
       d="m 849.87767,659.60705 12.21791,-12.98841 12.21791,-12.98841 -17.39126,-4.18271 -11.77763,-2.75178 c -2.53164,-0.55035 -4.73306,1.76114 -3.96257,4.18271 l 3.41221,11.55749 5.06329,17.06104 z"
       id="path22-0"
       style="fill:#204e66;fill-opacity:1;stroke-width:11.00712872" /><path
       inkscape:connector-curvature="0"
       class="cls-1"
       d="m 1026.8723,659.60705 -12.2179,-12.98841 -12.2179,-12.98841 17.3912,-4.18271 11.7776,-2.75178 c 2.5317,-0.55035 4.7331,1.76114 3.9626,4.18271 l -3.4122,11.55749 -5.0633,17.06104 z"
       id="path24-3"
       style="fill:#204e66;fill-opacity:1;stroke-width:11.00712872" /></g></svg>