<?xml version="1.0" encoding="UTF-8" standalone="no"?>
<svg
   xmlns:dc="http://purl.org/dc/elements/1.1/"
   xmlns:cc="http://creativecommons.org/ns#"
   xmlns:rdf="http://www.w3.org/1999/02/22-rdf-syntax-ns#"
   xmlns:svg="http://www.w3.org/2000/svg"
   xmlns="http://www.w3.org/2000/svg"
   xmlns:sodipodi="http://sodipodi.sourceforge.net/DTD/sodipodi-0.dtd"
   xmlns:inkscape="http://www.inkscape.org/namespaces/inkscape"
   viewBox="0 0 1434.6667 1149.8267"
   height="1149.8267"
   width="1434.6667"
   xml:space="preserve"
   id="svg2"
   version="1.1"
   sodipodi:docname="Tskit_rust_logo_white.eps.svg"
   inkscape:version="0.92.5 (2060ec1f9f, 2020-04-08)"><sodipodi:namedview
     pagecolor="#ffffff"
     bordercolor="#666666"
     borderopacity="1"
     objecttolerance="10"
     gridtolerance="10"
     guidetolerance="10"
     inkscape:pageopacity="0"
     inkscape:pageshadow="2"
     inkscape:window-width="1920"
     inkscape:window-height="1015"
     id="namedview24"
     showgrid="false"
     inkscape:zoom="0.38754645"
     inkscape:cx="823.65673"
     inkscape:cy="574.91333"
     inkscape:window-x="1920"
     inkscape:window-y="0"
     inkscape:window-maximized="1"
     inkscape:current-layer="g10" /><metadata
     id="metadata8"><rdf:RDF><cc:Work
         rdf:about=""><dc:format>image/svg+xml</dc:format><dc:type
           rdf:resource="http://purl.org/dc/dcmitype/StillImage" /><dc:title /></cc:Work></rdf:RDF></metadata><defs
     id="defs6" /><g
     transform="matrix(1.3333333,0,0,-1.3333333,0,1149.8267)"
     id="g10"><path
       inkscape:connector-curvature="0"
       d="m 297.213,139.992 c 56.861,-16.8 80.552,-34.46 80.552,-74.949 C 377.765,23.259 345.46,0 296.353,0 262.757,0 241.647,9.04414 227.435,23.691 L 226.575,6.89102 H 183.5 V 84.857 h 47.382 c 9.474,-23.691 28.428,-39.198 56.856,-39.198 15.938,0 28.859,6.4601 28.859,19.814 0,13.3532 -12.491,18.9512 -21.535,21.5372 l -33.6,9.0449 c -35.322,9.4769 -79.257,21.1069 -79.257,75.8119 0,42.643 30.584,65.473 75.814,65.473 22.396,0 46.087,-6.461 63.75,-22.398 l 0.861,15.937 h 43.074 v -75.382 h -47.382 c -7.323,24.554 -25.846,36.615 -46.091,36.615 -15.937,0 -28.858,-6.891 -28.858,-21.108 0,-12.06 7.753,-17.228 23.26,-21.967 l 30.58,-9.045"
       style="fill:#ffffff;fill-opacity:1;fill-rule:nonzero;stroke:none;stroke-width:0.1"
       id="path16" /><path
       inkscape:connector-curvature="0"
       d="M 502.248,6.89102 V 49.966 H 526.8 v 236.91 h -24.552 v 43.075 h 85.72 V 147.314 h 51.259 l 21.969,40.491 h -32.309 v 43.074 h 121.902 v -43.074 h -33.166 l -36.182,-61.166 53.841,-76.673 h 35.321 V 6.89102 H 645.689 V 49.966 h 21.966 l -36.182,58.582 H 587.968 V 49.966 h 24.551 V 6.89102 H 502.248"
       style="fill:#ffffff;fill-opacity:1;fill-rule:nonzero;stroke:none;stroke-width:0.1"
       id="path18" /><path
       inkscape:connector-curvature="0"
       d="m 808.51,301.522 c 0,19.814 13.782,34.889 36.612,34.889 22.831,0 36.613,-15.075 36.613,-34.889 0,-19.814 -13.782,-34.891 -36.613,-34.891 -22.83,0 -36.612,15.077 -36.612,34.891 z M 795.154,6.89102 V 49.966 h 24.552 v 137.839 h -24.552 v 43.074 h 85.72 V 49.966 h 24.552 V 6.89102 H 795.154"
       style="fill:#ffffff;fill-opacity:1;fill-rule:nonzero;stroke:none;stroke-width:0.1"
       id="path20" /><path
       inkscape:connector-curvature="0"
       d="M 951.517,83.9941 V 187.805 H 926.1 v 43.074 h 25.417 v 63.32 h 61.163 v -63.32 H 1076 v -43.074 h -63.32 V 83.9941 c 0,-23.691 9.91,-36.6121 32.31,-36.6121 14.21,0 25.84,4.7371 31.01,7.7532 V 10.3371 C 1067.39,6.03008 1051.02,0 1027.33,0 973.913,0 951.517,35.3191 951.517,83.9941"
       style="fill:#ffffff;fill-opacity:1;fill-rule:nonzero;stroke:none;stroke-width:0.1"
       id="path22" /><path
       inkscape:connector-curvature="0"
       d="m 86.5578,337.274 h -61.168 v 61.168 h 61.168 v -61.168"
       style="fill:#5dc694;fill-opacity:1;fill-rule:nonzero;stroke:none;stroke-width:0.1"
       id="path24" /><path
       inkscape:connector-curvature="0"
       d="m 1012.55,337.274 h -61.166 v 61.168 h 61.166 v -61.168"
       style="fill:#5dc694;fill-opacity:1;fill-rule:nonzero;stroke:none;stroke-width:0.1"
       id="path26" /><path
       inkscape:connector-curvature="0"
       d="M 587.968,373.025 H 526.8 v 61.168 h 61.168 v -61.168"
       style="fill:#5dc694;fill-opacity:1;fill-rule:nonzero;stroke:none;stroke-width:0.1"
       id="path28" /><path
       inkscape:connector-curvature="0"
       d="m 800.26,556.529 h -61.168 v 61.168 h 61.168 v -61.168"
       style="fill:#5dc694;fill-opacity:1;fill-rule:nonzero;stroke:none;stroke-width:0.1"
       id="path30" /><path
       inkscape:connector-curvature="0"
       d="m 800.26,617.697 h -61.168 v 61.168 h 61.168 v -61.168"
       style="fill:#5dc694;fill-opacity:1;fill-rule:nonzero;stroke:none;stroke-width:0.1"
       id="path32" /><path
       inkscape:connector-curvature="0"
       d="M 499.438,740.033 H 438.27 v 61.168 h 61.168 v -61.168"
       style="fill:#5dc694;fill-opacity:1;fill-rule:nonzero;stroke:none;stroke-width:0.1"
       id="path34" /><path
       inkscape:connector-curvature="0"
       d="m 86.5578,337.274 h -61.168 v 402.759 h 61.168 V 337.274"
       style="fill:#5dc694;fill-opacity:1;fill-rule:nonzero;stroke:none;stroke-width:0.1"
       id="path36" /><path
       inkscape:connector-curvature="0"
       d="M 499.438,801.201 H 438.27 v 61.168 h 61.168 v -61.168"
       style="fill:#5dc694;fill-opacity:1;fill-rule:nonzero;stroke:none;stroke-width:0.1"
       id="path38" /><path
       inkscape:connector-curvature="0"
       d="M 800.26,678.865 H 25.3898 v 61.168 H 800.26 v -61.168"
       style="fill:#5dc694;fill-opacity:1;fill-rule:nonzero;stroke:none;stroke-width:0.1"
       id="path40" /><path
       inkscape:connector-curvature="0"
       d="M 587.968,434.193 H 526.8 v 61.168 h 61.168 v -61.168"
       style="fill:#5dc694;fill-opacity:1;fill-rule:nonzero;stroke:none;stroke-width:0.1"
       id="path42" /><path
       inkscape:connector-curvature="0"
       d="m 1012.55,337.274 h -61.166 v 158.087 h 61.166 V 337.274"
       style="fill:#5dc694;fill-opacity:1;fill-rule:nonzero;stroke:none;stroke-width:0.1"
       id="path44" /><path
       inkscape:connector-curvature="0"
       d="M 1012.55,495.361 H 526.8 v 61.168 h 485.75 v -61.168"
       style="fill:#5dc694;fill-opacity:1;fill-rule:nonzero;stroke:none;stroke-width:0.1"
       id="path46" /><path
       transform="scale(0.1)"
       id="path14"
       style="fill:#ffffff;fill-opacity:1;fill-rule:nonzero;stroke:none"
       d="M 254.164,839.941 V 1878.05 H 0 v 430.74 h 254.164 v 633.2 h 611.637 v -633.2 H 1499 V 1878.05 H 865.801 V 839.941 c 0,-236.91 99.094,-366.121 323.049,-366.121 142.17,0 258.47,47.371 310.15,77.532 V 103.371 C 1412.85,60.3008 1249.18,0 1012.27,0 478.121,0 254.164,353.191 254.164,839.941" /><path
       inkscape:connector-curvature="0"
       class="cls-2"
       d="m 938.37498,822.73269 c -57.56728,0 -104.34757,-47.00043 -104.34757,-104.78786 0,-19.48261 5.28341,-37.86452 14.5294,-53.38457 0.44029,-0.66043 0.66043,-1.32085 1.10072,-1.87121 18.49197,-29.71924 51.29321,-49.53208 88.71745,-49.53208 57.56728,0 104.34752,47.00044 104.34752,104.78786 0,57.78743 -46.78024,104.78786 -104.34752,104.78786 z m 0,-190.53338 c -26.0869,0 -49.422,11.77762 -65.1622,30.37967 -6.82442,8.14527 -12.21791,17.50133 -15.7402,27.73796 -2.86185,8.69563 -4.51291,17.94162 -4.51291,27.51782 0,9.5762 1.76113,19.70276 5.06327,28.72861 3.30214,9.68627 8.47549,18.3819 14.85963,26.19696 15.74019,18.82219 39.18537,30.81996 65.49241,30.81996 47.00044,0 85.30522,-38.41488 85.30522,-85.74553 0,-3.41221 -0.2201,-6.82442 -0.5503,-10.12656 -1.9813,-17.06104 -9.0259,-32.58109 -19.4827,-45.01915 -15.74014,-18.60205 -39.07525,-30.48974 -65.16215,-30.48974 z"
       id="path6"
       style="fill:#ffffff;fill-opacity:1;stroke:#ffffff;stroke-width:11.00712872;stroke-opacity:0" /><path
       inkscape:connector-curvature="0"
       class="cls-1"
       d="m 1013.8839,709.35928 -1.6511,-10.23664 c -4.623,-13.53876 -18.49196,-4.07263 -18.49196,-4.07263 -6.38414,23.88547 -15.18985,25.53653 -15.96034,25.53653 18.93226,8.80571 18.93226,27.07754 18.93226,27.07754 0,11.8877 -8.25535,19.04233 -16.40062,23.11497 -7.37478,3.74242 -15.74019,5.39349 -23.99554,5.28342 l -83.65417,-0.55036 c -6.49421,-7.92512 -11.66756,-16.73083 -15.07977,-26.63724 h 17.72148 l -0.33022,-57.34715 h -17.83155 c 3.52228,-10.45676 8.91578,-19.92289 15.85026,-28.28831 h 65.38235 l -0.33022,27.18761 -23.00489,-0.33022 v 17.28119 h 18.93226 c 20.47326,0 20.47326,-17.6114 20.47326,-17.6114 1.76113,-26.0869 15.85026,-26.63726 15.85026,-26.63726 h 34.34225 c 10.5668,12.76827 17.7215,28.50847 19.7027,45.89973 h -10.5668 z m -68.79457,20.69339 h -29.93939 v 18.60206 h 28.39839 c 0,0 13.09848,2.09135 13.09848,-8.03521 0,-10.12656 -11.44741,-10.56685 -11.44741,-10.56685 z"
       id="path8"
       style="fill:#ffffff;fill-opacity:1;stroke-width:11.00712872" /><path
       inkscape:connector-curvature="0"
       class="cls-1"
       d="m 957.52738,822.07227 h -35.77317 l 8.91578,15.52005 6.05392,10.45677 c 1.32085,2.20143 4.51292,2.20143 5.83378,0 l 6.05392,-10.45677 z"
       id="path10"
       style="fill:#ffffff;fill-opacity:1;stroke-width:11.00712872" /><path
       inkscape:connector-curvature="0"
       class="cls-1"
       d="m 956.09646,613.0469 h -35.77317 l 8.91577,-15.52005 6.05392,-10.45677 c 1.32086,-2.20143 4.51293,-2.20143 5.83378,0 l 6.05392,10.45677 z"
       id="path12"
       style="fill:#ffffff;fill-opacity:1;stroke-width:11.00712872" /><path
       inkscape:connector-curvature="0"
       class="cls-1"
       d="m 1040.9614,699.56293 v 35.77317 l 15.52,-8.91577 10.4569,-6.05393 c 2.2013,-1.32085 2.2013,-4.51292 0,-5.83378 l -10.4569,-6.05392 z"
       id="path14-1"
       style="fill:#ffffff;fill-opacity:1;stroke-width:11.00712872" /><path
       inkscape:connector-curvature="0"
       class="cls-1"
       d="m 835.01804,698.79243 v 35.77317 l -15.52005,-8.91577 -10.45677,-6.05392 c -2.20143,-1.32086 -2.20143,-4.51293 0,-5.83379 l 10.45677,-6.05392 z"
       id="path16-0"
       style="fill:#ffffff;fill-opacity:1;stroke-width:11.00712872" /><path
       inkscape:connector-curvature="0"
       class="cls-1"
       d="m 851.63881,777.4934 12.21791,12.98841 12.21792,12.98841 -17.39127,4.18271 -11.77762,2.75178 c -2.53165,0.55036 -4.73307,-1.76114 -3.96257,-4.1827 l 3.41221,-11.55749 5.06327,-17.06105 z"
       id="path18-3"
       style="fill:#ffffff;fill-opacity:1;stroke-width:11.00712872" /><path
       inkscape:connector-curvature="0"
       class="cls-1"
       d="m 1024.891,775.29197 -12.2179,12.98841 -12.2179,12.98842 17.3912,4.18271 11.7777,2.75178 c 2.5316,0.55035 4.733,-1.76114 3.9625,-4.18271 l -3.4122,-11.55749 -5.0633,-17.06105 z"
       id="path20-4"
       style="fill:#ffffff;fill-opacity:1;stroke-width:11.00712872" /><path
       inkscape:connector-curvature="0"
       class="cls-1"
       d="m 849.87767,659.60705 12.21791,-12.98841 12.21791,-12.98841 -17.39126,-4.18271 -11.77763,-2.75178 c -2.53164,-0.55035 -4.73306,1.76114 -3.96257,4.18271 l 3.41221,11.55749 5.06329,17.06104 z"
       id="path22-0"
       style="fill:#ffffff;fill-opacity:1;stroke-width:11.00712872" /><path
       inkscape:connector-curvature="0"
       class="cls-1"
       d="m 1026.8723,659.60705 -12.2179,-12.98841 -12.2179,-12.98841 17.3912,-4.18271 11.7776,-2.75178 c 2.5317,-0.55035 4.7331,1.76114 3.9626,4.18271 l -3.4122,11.55749 -5.0633,17.06104 z"
       id="path24-3"
       style="fill:#ffffff;fill-opacity:1;stroke-width:11.00712872" /></g></svg>